<svg id="visual" viewBox="0 0 3840 1440" width="3840" height="1440" xmlns="http://www.w3.org/2000/svg" xmlns:xlink="http://www.w3.org/1999/xlink" version="1.1"><g><g transform="translate(2465 308)"><path d="M0 -69.5L69.5 0L0 69.5L-69.5 0Z" fill="#f2f0f9"></path></g><g transform="translate(1285 732)"><path d="M0 -29L29 0L0 29L-29 0Z" fill="#f2f0f9"></path></g><g transform="translate(2368 168)"><path d="M0 -29L29 0L0 29L-29 0Z" fill="#f2f0f9"></path></g><g transform="translate(3180 232)"><path d="M0 -51L51 0L0 51L-51 0Z" fill="#f2f0f9"></path></g><g transform="translate(449 948)"><path d="M0 -59L59 0L0 59L-59 0Z" fill="#f2f0f9"></path></g><g transform="translate(2464 587)"><path d="M0 -21L21 0L0 21L-21 0Z" fill="#f2f0f9"></path></g><g transform="translate(2688 372)"><path d="M0 -47L47 0L0 47L-47 0Z" fill="#f2f0f9"></path></g><g transform="translate(3039 752)"><path d="M0 -59L59 0L0 59L-59 0Z" fill="#f2f0f9"></path></g><g transform="translate(2514 1433)"><path d="M0 -65L65 0L0 65L-65 0Z" fill="#f2f0f9"></path></g><g transform="translate(2016 479)"><path d="M0 -29L29 0L0 29L-29 0Z" fill="#f2f0f9"></path></g><g transform="translate(3765 1052)"><path d="M0 -46L46 0L0 46L-46 0Z" fill="#f2f0f9"></path></g><g transform="translate(3521 1355)"><path d="M0 -39L39 0L0 39L-39 0Z" fill="#f2f0f9"></path></g><g transform="translate(1503 883)"><path d="M0 -62L62 0L0 62L-62 0Z" fill="#f2f0f9"></path></g><g transform="translate(1108 157)"><path d="M0 -38L38 0L0 38L-38 0Z" fill="#f2f0f9"></path></g><g transform="translate(734 1090)"><path d="M0 -68L68 0L0 68L-68 0Z" fill="#f2f0f9"></path></g><g transform="translate(1110 824)"><path d="M0 -51L51 0L0 51L-51 0Z" fill="#f2f0f9"></path></g><g transform="translate(2446 16)"><path d="M0 -41L41 0L0 41L-41 0Z" fill="#f2f0f9"></path></g><g transform="translate(3589 595)"><path d="M0 -67L67 0L0 67L-67 0Z" fill="#f2f0f9"></path></g><g transform="translate(191 420)"><path d="M0 -63L63 0L0 63L-63 0Z" fill="#f2f0f9"></path></g><g transform="translate(3565 421)"><path d="M0 -32L32 0L0 32L-32 0Z" fill="#f2f0f9"></path></g><g transform="translate(3398 345)"><path d="M0 -43L43 0L0 43L-43 0Z" fill="#f2f0f9"></path></g><g transform="translate(3085 1429)"><path d="M0 -57L57 0L0 57L-57 0Z" fill="#f2f0f9"></path></g></g></svg>