<svg id="visual" viewBox="0 0 900 600" width="900" height="600" xmlns="http://www.w3.org/2000/svg" xmlns:xlink="http://www.w3.org/1999/xlink" version="1.1"><rect x="0" y="0" width="900" height="600" fill="#001220"></rect><defs><linearGradient id="grad1_0" x1="33.3%" y1="0%" x2="100%" y2="100%"><stop offset="20%" stop-color="#830cd7" stop-opacity="1"></stop><stop offset="80%" stop-color="#830cd7" stop-opacity="1"></stop></linearGradient></defs><defs><linearGradient id="grad1_1" x1="33.3%" y1="0%" x2="100%" y2="100%"><stop offset="20%" stop-color="#830cd7" stop-opacity="1"></stop><stop offset="80%" stop-color="#003087" stop-opacity="1"></stop></linearGradient></defs><defs><linearGradient id="grad1_2" x1="33.3%" y1="0%" x2="100%" y2="100%"><stop offset="20%" stop-color="#001220" stop-opacity="1"></stop><stop offset="80%" stop-color="#003087" stop-opacity="1"></stop></linearGradient></defs><defs><linearGradient id="grad2_0" x1="0%" y1="0%" x2="66.7%" y2="100%"><stop offset="20%" stop-color="#830cd7" stop-opacity="1"></stop><stop offset="80%" stop-color="#830cd7" stop-opacity="1"></stop></linearGradient></defs><defs><linearGradient id="grad2_1" x1="0%" y1="0%" x2="66.7%" y2="100%"><stop offset="20%" stop-color="#003087" stop-opacity="1"></stop><stop offset="80%" stop-color="#830cd7" stop-opacity="1"></stop></linearGradient></defs><defs><linearGradient id="grad2_2" x1="0%" y1="0%" x2="66.7%" y2="100%"><stop offset="20%" stop-color="#003087" stop-opacity="1"></stop><stop offset="80%" stop-color="#001220" stop-opacity="1"></stop></linearGradient></defs><g transform="translate(900, 0)"><path d="M0 270.4C-32.6 260.5 -65.2 250.6 -99.1 239.3C-133.1 228 -168.4 215.4 -191.2 191.2C-214.1 167.1 -224.5 131.4 -235.6 97.6C-246.7 63.8 -258.6 31.9 -270.4 0L0 0Z" fill="#002453"></path><path d="M0 180.3C-21.7 173.7 -43.4 167 -66.1 159.5C-88.7 152 -112.2 143.6 -127.5 127.5C-142.7 111.4 -149.6 87.6 -157.1 65.1C-164.5 42.5 -172.4 21.3 -180.3 0L0 0Z" fill="#2931b6"></path><path d="M0 90.1C-10.9 86.8 -21.7 83.5 -33 79.8C-44.4 76 -56.1 71.8 -63.7 63.7C-71.4 55.7 -74.8 43.8 -78.5 32.5C-82.2 21.3 -86.2 10.6 -90.1 0L0 0Z" fill="#830cd7"></path></g><g transform="translate(0, 600)"><path d="M0 -270.4C35.4 -266.8 70.8 -263.3 103.5 -249.8C136.1 -236.4 166 -213.1 185.3 -185.3C204.5 -157.4 213 -125 225.4 -93.4C237.8 -61.7 254.1 -30.9 270.4 0L0 0Z" fill="#002453"></path><path d="M0 -180.3C23.6 -177.9 47.2 -175.5 69 -166.6C90.8 -157.6 110.7 -142.1 123.5 -123.5C136.3 -104.9 142 -83.3 150.3 -62.2C158.6 -41.2 169.4 -20.6 180.3 0L0 0Z" fill="#2931b6"></path><path d="M0 -90.1C11.8 -88.9 23.6 -87.8 34.5 -83.3C45.4 -78.8 55.3 -71 61.8 -61.8C68.2 -52.5 71 -41.7 75.1 -31.1C79.3 -20.6 84.7 -10.3 90.1 0L0 0Z" fill="#830cd7"></path></g></svg>
