<svg id="visual" viewBox="0 0 3840 1440" width="3840" height="1440" xmlns="http://www.w3.org/2000/svg" xmlns:xlink="http://www.w3.org/1999/xlink" version="1.1"><path d="M0 977L128 996.7C256 1016.3 512 1055.7 768 1066C1024 1076.3 1280 1057.7 1536 1066.5C1792 1075.3 2048 1111.7 2304 1124.8C2560 1138 2816 1128 3072 1101C3328 1074 3584 1030 3712 1008L3840 986L3840 1441L3712 1441C3584 1441 3328 1441 3072 1441C2816 1441 2560 1441 2304 1441C2048 1441 1792 1441 1536 1441C1280 1441 1024 1441 768 1441C512 1441 256 1441 128 1441L0 1441Z" fill="#3a0cd7"></path><path d="M0 1185L128 1174.3C256 1163.7 512 1142.3 768 1151.3C1024 1160.3 1280 1199.7 1536 1202.7C1792 1205.7 2048 1172.3 2304 1171.7C2560 1171 2816 1203 3072 1225.8C3328 1248.7 3584 1262.3 3712 1269.2L3840 1276L3840 1441L3712 1441C3584 1441 3328 1441 3072 1441C2816 1441 2560 1441 2304 1441C2048 1441 1792 1441 1536 1441C1280 1441 1024 1441 768 1441C512 1441 256 1441 128 1441L0 1441Z" fill="#6509d7"></path><path d="M0 1316L128 1306.5C256 1297 512 1278 768 1286.8C1024 1295.7 1280 1332.3 1536 1336.7C1792 1341 2048 1313 2304 1291.3C2560 1269.7 2816 1254.3 3072 1249.2C3328 1244 3584 1249 3712 1251.5L3840 1254L3840 1441L3712 1441C3584 1441 3328 1441 3072 1441C2816 1441 2560 1441 2304 1441C2048 1441 1792 1441 1536 1441C1280 1441 1024 1441 768 1441C512 1441 256 1441 128 1441L0 1441Z" fill="#830cd7"></path></svg>